<?xml version="1.0" encoding="UTF-8" standalone="no"?><!DOCTYPE svg PUBLIC "-//W3C//DTD SVG 1.1//EN" "http://www.w3.org/Graphics/SVG/1.1/DTD/svg11.dtd"><svg width="100%" height="100%" viewBox="0 0 1660 2667" version="1.1" xmlns="http://www.w3.org/2000/svg" xmlns:xlink="http://www.w3.org/1999/xlink" xml:space="preserve" xmlns:serif="http://www.serif.com/" style="fill-rule:evenodd;clip-rule:evenodd;stroke-linejoin:round;stroke-miterlimit:2;"><g><path d="M1261.343,580.613c28.902,30.969 155.979,186.356 223.306,341c61.775,141.892 194.358,428.718 -9.778,779.043c-14.73,25.278 -102.703,158.646 -226.636,237.401c-5.483,3.484 -55.601,35.333 -69.895,41.34c-39.199,16.475 12.344,28.357 24.138,34.121c362.707,177.245 437.257,532.971 449.442,591.114c7.183,34.276 17.521,60.696 -10.448,61.006c-115.119,1.278 -116.597,0.809 -123.193,-6.532c-16.952,-18.866 -17.794,-233.783 -243.951,-426.371c-226.248,-192.665 -460.953,-153.032 -535.428,-167.968c-82.789,-16.603 -274.056,-35.169 -478.226,-261.43c-85.255,-94.48 -158.84,-248.791 -175.831,-375.445c-23.645,-176.255 -19.677,-467.367 335.81,-791.33c150.245,-136.922 240.065,-198.915 313.924,-384.544c42.062,-105.714 34.078,-208.04 30.112,-225.041c-4.398,-18.853 -9.741,-30.691 8.83,-25.916c5.358,1.378 4.062,3.693 57.592,38.27c46.731,30.186 168.906,128.51 232.779,246.438c35.716,65.943 137.275,265.757 24.833,504.722c-120.919,256.98 -478.921,365.471 -356.756,541.725c86.86,125.318 278.441,4.35 208.656,-129.888c-11.79,-22.68 -13.693,-21.138 -25.935,-43.265c-11.941,-21.581 12.474,-35.721 56.337,-75.214c26.223,-23.611 33.237,-39.264 55.301,-11.424c22.733,28.684 86.585,102.702 67.631,235.39c-19.824,138.775 -145.258,192.511 -164.332,200.682c-32.273,13.826 -25.668,21.769 -25.65,56.735c0.002,2.976 0.017,32.566 4.125,36.969c12.499,13.393 75.194,-7.188 87.2,7.193c2.289,2.742 12.664,79.063 -10.683,107.604c-31.354,38.329 -74.564,22.068 -87.577,47.361c-6.27,12.187 -5.068,12.519 -11.351,24.579c-28.28,54.281 -123.765,75.305 -128.29,42.538c-2.367,-17.138 3.767,-294.466 -3.967,-307.304c-8.785,-14.584 -69.075,-18.379 -136.421,-103.682c-31.296,-39.64 -129.851,-210.438 50.793,-382.177c169.265,-160.921 458.758,-334.227 261.187,-693.88c-3.974,-7.234 -29.332,-41.712 -31.96,-45.284c-30.956,-42.089 -18.695,24.228 -95.56,141.681c-169.394,258.84 -287.668,251.066 -460.302,503.946c-62.418,91.432 -111.016,220.608 -118.274,311.026c-24.729,308.091 167.11,560.281 438.824,644.735c400.549,124.498 842.736,-223.459 769.36,-686.925c-6.598,-41.675 -55.789,-218.664 -152.526,-369.082c-51.906,-80.71 -54.86,-80.858 -53.008,-96.318c3.913,-32.66 26.675,-70.852 23.55,-153.774c-0.398,-10.575 2.897,-9.346 12.25,-13.826Z" style="fill:#2a56b7;"/><path d="M3.318,2631.458c21.004,-99.465 55.416,-298.713 273.795,-496.739c46.864,-42.496 127.963,-93.983 145.549,-101.661c11.412,-4.983 12.011,-1.703 73.866,26.179c99.37,44.791 105.496,32.967 110.3,41.065c4.281,7.216 -5.795,11.672 -6.812,12.122c-14.914,6.596 -17.721,-0.721 -85.742,34.285c-195.529,100.625 -279.758,263.364 -295.046,292.902c-84.074,162.438 -57.739,201.182 -78.386,220.733c-9.693,9.179 -131.814,6.614 -137.326,1.242c-6.314,-6.154 -2.684,-7.416 -0.198,-30.127Z" style="fill:#2b56b6;"/></g></svg>